<svg width="36" height="36" viewBox="0 0 36 36" fill="none" xmlns="http://www.w3.org/2000/svg">
<rect width="36" height="36" transform="matrix(1 0 0 -1 0 36)" fill="#7943A4"/>
<rect width="8.79564" height="2.19891" transform="matrix(-0.711314 0.702874 0.711314 0.702874 10.2565 24.2722)" fill="white"/>
<path fill-rule="evenodd" clip-rule="evenodd" d="M19.3286 27.3112C13.5422 27.3112 9.06477 22.549 9.06477 16.9507C9.06477 11.3523 13.5422 6.59013 19.3286 6.59013C25.115 6.59013 29.5924 11.3523 29.5924 16.9507C29.5924 22.549 25.115 27.3112 19.3286 27.3112ZM19.3286 29.9013C12.3304 29.9013 6.6572 24.1031 6.6572 16.9507C6.6572 9.79821 12.3304 4 19.3286 4C26.3268 4 32 9.79821 32 16.9507C32 24.1031 26.3268 29.9013 19.3286 29.9013Z" fill="white"/>
</svg>
