<?xml version="1.0" standalone="no"?>
<!DOCTYPE svg PUBLIC "-//W3C//DTD SVG 20010904//EN"
 "http://www.w3.org/TR/2001/REC-SVG-20010904/DTD/svg10.dtd">
<svg version="1.0" xmlns="http://www.w3.org/2000/svg"
 width="96.000000pt" height="96.000000pt" viewBox="0 0 96.000000 96.000000"
 preserveAspectRatio="xMidYMid meet">

<g transform="translate(0.000000,96.000000) scale(0.100000,-0.100000)"
fill="#000000" stroke="none">
<path d="M158 859 c-17 -9 -18 -35 -18 -304 0 -340 -9 -315 109 -315 l71 0 0
-65 c0 -53 3 -66 19 -75 12 -6 104 -10 231 -10 127 0 219 4 231 10 18 10 19
24 19 305 0 340 9 315 -109 315 l-71 0 0 65 c0 53 -3 66 -19 75 -26 13 -440
13 -463 -1z m457 -304 l0 -280 -225 0 -225 0 -3 270 c-1 148 0 275 3 283 3 10
53 12 227 10 l223 -3 0 -280z m180 -150 l0 -280 -225 0 -225 0 -3 58 -3 57
131 0 c72 0 140 5 151 10 18 10 19 23 19 226 l0 215 78 -3 77 -3 0 -280z"/>
<path d="M264 736 c-9 -24 4 -48 23 -44 24 4 24 52 0 56 -9 2 -20 -4 -23 -12z"/>
<path d="M335 623 c-25 -32 -45 -62 -45 -68 0 -14 88 -125 100 -125 12 0 100
111 100 125 0 14 -88 125 -100 125 -5 0 -30 -26 -55 -57z m88 -13 l28 -40 -61
0 -61 0 28 40 c15 22 30 40 33 40 3 0 18 -18 33 -40z m0 -110 c-15 -22 -30
-40 -33 -40 -3 0 -18 18 -33 40 l-28 40 61 0 61 0 -28 -40z"/>
<path d="M474 406 c-9 -24 4 -48 23 -44 12 2 18 12 18 28 0 29 -32 41 -41 16z"/>
</g>
</svg>
